<?xml version="1.0" encoding="UTF-8" standalone="no"?>
<svg
   xmlns:dc="http://purl.org/dc/elements/1.1/"
   xmlns:cc="http://creativecommons.org/ns#"
   xmlns:rdf="http://www.w3.org/1999/02/22-rdf-syntax-ns#"
   xmlns:svg="http://www.w3.org/2000/svg"
   xmlns="http://www.w3.org/2000/svg"
   id="svg6"
   viewBox="0 0 20 20"
   height="20"
   width="20"
   version="1.1">
  <metadata
     id="metadata12">
    <rdf:RDF>
      <cc:Work
         rdf:about="">
        <dc:format>image/svg+xml</dc:format>
        <dc:type
           rdf:resource="http://purl.org/dc/dcmitype/StillImage" />
        <dc:title></dc:title>
      </cc:Work>
    </rdf:RDF>
  </metadata>
  <defs
     id="defs10" />
  <path
     style="fill:#feffff;fill-opacity:1;stroke-width:1.53846157"
     id="path4"
     d="M 19.230769,9.2307692 H 10.769231 V 0.76923077 C 10.769231,0.34461538 10.424615,0 10,0 9.5753846,0 9.2307692,0.34461538 9.2307692,0.76923077 V 9.2307692 H 0.76923077 C 0.34461538,9.2307692 0,9.5753846 0,10 c 0,0.424615 0.34461538,0.769231 0.76923077,0.769231 H 9.2307692 v 8.461538 C 9.2307692,19.655385 9.5753846,20 10,20 c 0.424615,0 0.769231,-0.344615 0.769231,-0.769231 v -8.461538 h 8.461538 C 19.655385,10.769231 20,10.424615 20,10 20,9.5753846 19.655385,9.2307692 19.230769,9.2307692 Z" />
</svg>
